<?xml version="1.0" encoding="UTF-8"?>
<svg xmlns="http://www.w3.org/2000/svg" xmlns:xlink="http://www.w3.org/1999/xlink" width="18pt" height="18pt" viewBox="0 0 18 18" version="1.1">
<g id="surface16543">
<path style=" stroke:none;fill-rule:nonzero;fill:rgb(94.901961%,95.686275%,100%);fill-opacity:1;" d="M 7.199219 2.878906 C 4.875 2.878906 3.011719 4.71875 2.914062 7.019531 C 1.230469 7.480469 0 9 0 10.800781 C 0 12.976562 1.78125 14.761719 3.960938 14.761719 L 14.761719 14.761719 C 16.539062 14.761719 18 13.300781 18 11.519531 C 18 10.117188 17.066406 8.925781 15.804688 8.503906 C 15.730469 6.394531 14.007812 4.679688 11.878906 4.679688 C 11.507812 4.679688 11.15625 4.773438 10.8125 4.871094 C 10.039062 3.695312 8.71875 2.878906 7.199219 2.878906 Z M 7.199219 3.601562 C 8.542969 3.601562 9.71875 4.355469 10.339844 5.433594 L 10.496094 5.691406 L 10.777344 5.589844 C 11.136719 5.460938 11.488281 5.398438 11.878906 5.398438 C 13.664062 5.398438 15.121094 6.855469 15.121094 8.640625 L 15.121094 9.035156 L 15.402344 9.101562 C 16.457031 9.351562 17.28125 10.355469 17.28125 11.519531 C 17.28125 12.90625 16.148438 14.039062 14.761719 14.039062 L 3.960938 14.039062 C 2.175781 14.039062 0.71875 12.582031 0.71875 10.800781 C 0.71875 9.242188 1.820312 7.917969 3.308594 7.628906 L 3.601562 7.570312 L 3.601562 7.199219 C 3.601562 5.195312 5.195312 3.601562 7.199219 3.601562 Z M 9 6.695312 L 8.742188 6.941406 L 6.582031 9.101562 L 7.097656 9.617188 L 8.640625 8.078125 L 8.640625 12.238281 L 9.359375 12.238281 L 9.359375 8.078125 L 10.902344 9.617188 L 11.417969 9.101562 L 9.257812 6.941406 Z M 9 6.695312 "/>
</g>
</svg>
